<!DOCTYPE svg PUBLIC "-//W3C//DTD SVG 1.1//EN" "http://www.w3.org/Graphics/SVG/1.1/DTD/svg11.dtd">

<!-- Uploaded to: SVG Repo, www.svgrepo.com, Transformed by: SVG Repo Mixer Tools -->
<svg width="30px" height="30px" viewBox="0 0 24 24" fill="none" xmlns="http://www.w3.org/2000/svg" transform="matrix(-1, 0, 0, 1, 0, 0)rotate(0)">

<g id="SVGRepo_bgCarrier" stroke-width="0"/>

<g id="SVGRepo_tracerCarrier" stroke-linecap="round" stroke-linejoin="round" stroke="#e37878" stroke-width="0.096"/>

<g id="SVGRepo_iconCarrier"> <path d="M3.03341 8.89004C2.55287 5.68645 2.3126 4.08466 3.21024 3.04233C4.10789 2 5.7276 2 8.96703 2H15.0328C18.2722 2 19.8919 2 20.7896 3.04233C21.6872 4.08466 21.4469 5.68646 20.9664 8.89004L19.7664 16.89C19.4008 19.3276 19.2179 20.5464 18.374 21.2732C17.5301 22 16.2976 22 13.8328 22H10.167C7.70216 22 6.46972 22 5.6258 21.2732C4.78187 20.5464 4.59905 19.3276 4.23341 16.89L3.03341 8.89004Z" stroke="#ff0000" stroke-width="1.176"/> <path d="M21 6H3" stroke="#ff0000" stroke-width="1.176" stroke-linecap="round"/> <path opacity="0.5" d="M8 6L3.5 11L11 19M14 6L4 16M20 6L7 19M13 19L20.5 11L16 6M10 6L20 16M4 6L17 19" stroke="#ff0000" stroke-width="1.176" stroke-linejoin="round"/> <path d="M19 19H5" stroke="#ff0000" stroke-width="1.176" stroke-linecap="round"/> </g>

</svg>