<!DOCTYPE svg PUBLIC "-//W3C//DTD SVG 1.1//EN" "http://www.w3.org/Graphics/SVG/1.1/DTD/svg11.dtd">
<!-- Uploaded to: SVG Repo, www.svgrepo.com, Transformed by: SVG Repo Mixer Tools -->
<svg version="1.1" id="Uploaded to svgrepo.com" xmlns="http://www.w3.org/2000/svg" xmlns:xlink="http://www.w3.org/1999/xlink" width="800px" height="800px" viewBox="-2.56 -2.56 37.12 37.12" xml:space="preserve" fill="#ffffff">
<g id="SVGRepo_bgCarrier" stroke-width="0"/>
<g id="SVGRepo_tracerCarrier" stroke-linecap="round" stroke-linejoin="round"/>
<g id="SVGRepo_iconCarrier"> <style type="text/css"> .flatshadows_een{fill:#0DcFFF;} .flatshadows_twee{fill:#E1E5E5;} .flatshadows_vier{fill:#00f0ff;} .flatshadows_vijf{fill:#0099ff;} .st0{fill:none;} .st1{fill:#C4CCCC;} .st2{fill:#737F7F;} .st3{fill:#0DcFFF;} .st4{fill:#E1E5E5;} .st5{fill:#00f0ff;} .st6{fill:#FFFFFF;} </style> <g> <path class="flatshadows_een" d="M12,2c5.514,0,10,4.486,10,10s-4.486,10-10,10S2,17.514,2,12S6.486,2,12,2"/> <path class="flatshadows_twee" d="M12,2C9.243,2,6.743,3.122,4.932,4.932l14.135,14.135C20.878,17.257,22,14.757,22,12 C22,6.486,17.514,2,12,2z"/> <path class="flatshadows_vier" d="M12,2c5.514,0,10,4.486,10,10s-4.486,10-10,10S2,17.514,2,12S6.486,2,12,2 M12,0 C5.373,0,0,5.373,0,12s5.373,12,12,12s12-5.373,12-12S18.627,0,12,0L12,0z M29,32l3-3l-8-8l-3,3L29,32z M15,12H9v-1h6V12z M15,13H9 v1h6V13z M15,9H9v1h6V9z"/> <path class="flatshadows_vijf" d="M15,10h-5L9,9h6V10z M15,11h-4l1,1h3V11z M15,13h-2l1,1h1V13z M19.961,20.961L22,23l1-1 l-2.039-2.039C20.648,20.314,20.314,20.648,19.961,20.961z"/> </g> </g>
</svg>